<!-- Black and Grey Checkered Card Back -->
<svg width="150" height="210" viewBox="0 0 150 210" xmlns="http://www.w3.org/2000/svg">
  <!-- Card background -->
  <defs>
    <linearGradient id="greyGradient" x1="0%" y1="0%" x2="100%" y2="100%">
      <stop offset="0%" style="stop-color:#424242;stop-opacity:1" />
      <stop offset="50%" style="stop-color:#212121;stop-opacity:1" />
      <stop offset="100%" style="stop-color:#000000;stop-opacity:1" />
    </linearGradient>
    
    <!-- Checkered pattern -->
    <pattern id="checkerPattern" x="0" y="0" width="30" height="30" patternUnits="userSpaceOnUse">
      <rect x="0" y="0" width="15" height="15" fill="#000000"/>
      <rect x="15" y="15" width="15" height="15" fill="#000000"/>
      <rect x="15" y="0" width="15" height="15" fill="#616161"/>
      <rect x="0" y="15" width="15" height="15" fill="#616161"/>
    </pattern>
    
    <!-- Small diamond pattern overlay -->
    <pattern id="diamondOverlay" x="0" y="0" width="20" height="20" patternUnits="userSpaceOnUse">
      <polygon points="10,2 18,10 10,18 2,10" fill="#ffffff" opacity="0.1"/>
      <polygon points="10,5 15,10 10,15 5,10" fill="#9e9e9e" opacity="0.2"/>
    </pattern>
  </defs>
  
  <!-- Main background gradient -->
  <rect width="150" height="210" fill="url(#greyGradient)" rx="8"/>
  
  <!-- Checkered pattern -->
  <rect width="150" height="210" fill="url(#checkerPattern)" rx="8"/>
  
  <!-- Diamond pattern overlay -->
  <rect width="150" height="210" fill="url(#diamondOverlay)" rx="8"/>
  
  <!-- Central design -->
  <g transform="translate(75,105)">
    <!-- Outer square rotated 45 degrees -->
    <rect x="-25" y="-25" width="50" height="50" fill="none" stroke="#ffffff" stroke-width="2" opacity="0.8" transform="rotate(45)"/>
    
    <!-- Inner square -->
    <rect x="-15" y="-15" width="30" height="30" fill="none" stroke="#bdbdbd" stroke-width="1.5" opacity="0.9" transform="rotate(45)"/>
    
    <!-- Central diamond -->
    <polygon points="0,-10 10,0 0,10 -10,0" fill="#ffffff" opacity="0.3"/>
    <polygon points="0,-6 6,0 0,6 -6,0" fill="#424242" opacity="0.7"/>
    
    <!-- Corner accents -->
    <circle cx="-20" cy="-20" r="3" fill="#ffffff" opacity="0.6"/>
    <circle cx="20" cy="-20" r="3" fill="#ffffff" opacity="0.6"/>
    <circle cx="-20" cy="20" r="3" fill="#ffffff" opacity="0.6"/>
    <circle cx="20" cy="20" r="3" fill="#ffffff" opacity="0.6"/>
  </g>
  
  <!-- Corner checkered squares -->
  <g transform="translate(20,20)">
    <rect x="-6" y="-6" width="6" height="6" fill="#000000"/>
    <rect x="0" y="0" width="6" height="6" fill="#000000"/>
    <rect x="0" y="-6" width="6" height="6" fill="#757575"/>
    <rect x="-6" y="0" width="6" height="6" fill="#757575"/>
  </g>
  
  <g transform="translate(130,20)">
    <rect x="-6" y="-6" width="6" height="6" fill="#000000"/>
    <rect x="0" y="0" width="6" height="6" fill="#000000"/>
    <rect x="0" y="-6" width="6" height="6" fill="#757575"/>
    <rect x="-6" y="0" width="6" height="6" fill="#757575"/>
  </g>
  
  <g transform="translate(20,190)">
    <rect x="-6" y="-6" width="6" height="6" fill="#000000"/>
    <rect x="0" y="0" width="6" height="6" fill="#000000"/>
    <rect x="0" y="-6" width="6" height="6" fill="#757575"/>
    <rect x="-6" y="0" width="6" height="6" fill="#757575"/>
  </g>
  
  <g transform="translate(130,190)">
    <rect x="-6" y="-6" width="6" height="6" fill="#000000"/>
    <rect x="0" y="0" width="6" height="6" fill="#000000"/>
    <rect x="0" y="-6" width="6" height="6" fill="#757575"/>
    <rect x="-6" y="0" width="6" height="6" fill="#757575"/>
  </g>
  
  <!-- Subtle border accent -->
  <rect x="3" y="3" width="144" height="204" fill="none" stroke="#bdbdbd" stroke-width="1" opacity="0.3" rx="8"/>
</svg>
